<svg xmlns="http://www.w3.org/2000/svg" xmlns:xlink="http://www.w3.org/1999/xlink" xmlns:lucid="lucid" width="1681" height="1004"><g transform="translate(-39.5 -177.5)" lucid:page-tab-id="fwQcDkAJnwES"><path d="M0 0h1760v1360H0z" fill="#fff"/><path d="M452.95 207a8 8 0 0 1 8-8h836.75a8 8 0 0 1 8 8v102.68a8 8 0 0 1-8 8H460.95a8 8 0 0 1-8-8z" stroke="#000" stroke-opacity="0" stroke-width="3" fill="#fff" fill-opacity="0"/><use xlink:href="#a" transform="matrix(1,0,0,1,456.9480306267292,203) translate(256.42172839506173 44.47027777777778)"/><use xlink:href="#b" transform="matrix(1,0,0,1,456.9480306267292,203) translate(383.01679012345676 44.47027777777778)"/><use xlink:href="#c" transform="matrix(1,0,0,1,456.9480306267292,203) translate(486.1575308641975 44.47027777777778)"/><use xlink:href="#d" transform="matrix(1,0,0,1,456.9480306267292,203) translate(195.92851851851856 78.61694444444444)"/><use xlink:href="#e" transform="matrix(1,0,0,1,456.9480306267292,203) translate(303.65814814814814 78.61694444444444)"/><use xlink:href="#f" transform="matrix(1,0,0,1,456.9480306267292,203) translate(341.46185185185186 78.61694444444444)"/><use xlink:href="#g" transform="matrix(1,0,0,1,456.9480306267292,203) translate(530.5532098765432 78.61694444444444)"/><path d="M723.75 313.8h320M723.78 313.8h-1.53M1043.7 313.8h1.55" stroke="#a9afb8" stroke-width="3" fill="none"/><path d="M466.1 298.35a8 8 0 0 1 8-8h837.7a8 8 0 0 1 8 8V391a8 8 0 0 1-8 8H474.1a8 8 0 0 1-8-8z" stroke="#000" stroke-opacity="0" stroke-width="3" fill="#fff" fill-opacity="0"/><use xlink:href="#h" transform="matrix(1,0,0,1,470.0945834120726,294.35056454691033) translate(292.42111111111114 55.17652777777778)"/><use xlink:href="#i" transform="matrix(1,0,0,1,470.0945834120726,294.35056454691033) translate(346.74209876543216 55.17652777777778)"/><use xlink:href="#j" transform="matrix(1,0,0,1,470.0945834120726,294.35056454691033) translate(434.39641975308643 55.17652777777778)"/><use xlink:href="#k" transform="matrix(1,0,0,1,470.0945834120726,294.35056454691033) translate(507.1741975308642 55.17652777777778)"/><path d="M920 585a8 8 0 0 1 8-8h364a8 8 0 0 1 8 8v248a8 8 0 0 1-8 8H928a8 8 0 0 1-8-8z" fill="#fff"/><path d="M920 649v33h380v-33M920 713v33h380v-33M920 777v33h380v-33" fill="#e6e6e6"/><path d="M920 617v-32a8 8 0 0 1 8-8h364a8 8 0 0 1 8 8v32" fill="#ccc"/><path d="M920 585a8 8 0 0 1 8-8h364a8 8 0 0 1 8 8v248a8 8 0 0 1-8 8H928a8 8 0 0 1-8-8zM920 617h380M980 617v224M1194.48 617v224" stroke="#333" fill="none"/><use xlink:href="#l" transform="matrix(1,0,0,1,930,577) translate(149.075 23.6)"/><use xlink:href="#m" transform="matrix(1,0,0,1,925,619.5) translate(13 17.1)"/><use xlink:href="#n" transform="matrix(1,0,0,1,985,619.5) translate(90.525 17.1)"/><use xlink:href="#o" transform="matrix(1,0,0,1,1199.4841852247168,619.5) translate(38.525 17.1)"/><use xlink:href="#p" transform="matrix(1,0,0,1,985,651.5) translate(72.05 17.1)"/><use xlink:href="#q" transform="matrix(1,0,0,1,1199.4841852247168,651.5) translate(18.049999999999997 17.1)"/><use xlink:href="#r" transform="matrix(1,0,0,1,985,683.5) translate(81.07499999999999 17.1)"/><use xlink:href="#q" transform="matrix(1,0,0,1,1199.4841852247168,683.5) translate(18.049999999999997 17.1)"/><use xlink:href="#s" transform="matrix(1,0,0,1,985,715.5) translate(70.525 17.1)"/><use xlink:href="#q" transform="matrix(1,0,0,1,1199.4841852247168,715.5) translate(18.049999999999997 17.1)"/><use xlink:href="#t" transform="matrix(1,0,0,1,985,747.5) translate(7.1000000000000085 17.1)"/><use xlink:href="#u" transform="matrix(1,0,0,1,1199.4841852247168,747.5) translate(13.549999999999997 17.1)"/><use xlink:href="#v" transform="matrix(1,0,0,1,985,779.5) translate(43.5 17.1)"/><use xlink:href="#w" transform="matrix(1,0,0,1,1199.4841852247168,779.5) translate(25.525 17.1)"/><use xlink:href="#x" transform="matrix(1,0,0,1,985,811.5) translate(56.05 17.1)"/><use xlink:href="#q" transform="matrix(1,0,0,1,1199.4841852247168,811.5) translate(18.049999999999997 17.1)"/><path d="M520 825a8 8 0 0 1 8-8h304a8 8 0 0 1 8 8v248a8 8 0 0 1-8 8H528a8 8 0 0 1-8-8z" fill="#fff"/><path d="M520 889v33h320v-33M520 953v33h320v-33M520 1017v33h320v-33" fill="#e6e6e6"/><path d="M520 857v-32a8 8 0 0 1 8-8h304a8 8 0 0 1 8 8v32" fill="#ccc"/><path d="M520 825a8 8 0 0 1 8-8h304a8 8 0 0 1 8 8v248a8 8 0 0 1-8 8H528a8 8 0 0 1-8-8zM520 857h320M580 857v224M735 857v224" stroke="#333" fill="none"/><use xlink:href="#y" transform="matrix(1,0,0,1,530,817) translate(84.05 23.6)"/><use xlink:href="#m" transform="matrix(1,0,0,1,525,859.5) translate(13 17.1)"/><use xlink:href="#z" transform="matrix(1,0,0,1,585,859.5) translate(33.525 17.1)"/><use xlink:href="#o" transform="matrix(1,0,0,1,739.9930588766189,859.5) translate(38.525 17.1)"/><use xlink:href="#A" transform="matrix(1,0,0,1,525,891.5) translate(13.524999999999999 17.1)"/><use xlink:href="#B" transform="matrix(1,0,0,1,585,891.5) translate(31.074999999999996 17.1)"/><use xlink:href="#o" transform="matrix(1,0,0,1,739.9930588766189,891.5) translate(38.525 17.1)"/><use xlink:href="#C" transform="matrix(1,0,0,1,585,923.5) translate(26.025 17.1)"/><use xlink:href="#w" transform="matrix(1,0,0,1,739.9930588766189,923.5) translate(25.525 17.1)"/><use xlink:href="#D" transform="matrix(1,0,0,1,585,955.5) translate(51.025 17.1)"/><use xlink:href="#E" transform="matrix(1,0,0,1,739.9930588766189,955.5) translate(17.074999999999996 17.1)"/><use xlink:href="#F" transform="matrix(1,0,0,1,585,987.5) translate(12.049999999999997 17.1)"/><use xlink:href="#u" transform="matrix(1,0,0,1,739.9930588766189,987.5) translate(13.549999999999997 17.1)"/><use xlink:href="#v" transform="matrix(1,0,0,1,585,1019.5) translate(13.5 17.1)"/><use xlink:href="#w" transform="matrix(1,0,0,1,739.9930588766189,1019.5) translate(25.525 17.1)"/><use xlink:href="#G" transform="matrix(1,0,0,1,585,1051.5) translate(26.049999999999997 17.1)"/><use xlink:href="#H" transform="matrix(1,0,0,1,739.9930588766189,1051.5) translate(18.049999999999997 17.1)"/><path d="M1380 417a8 8 0 0 1 8-8h304a8 8 0 0 1 8 8v152a8 8 0 0 1-8 8h-304a8 8 0 0 1-8-8z" fill="#fff"/><path d="M1380 481v33h320v-33M1380 545v24a8 8 0 0 0 8 8h304a8 8 0 0 0 8-8v-24" fill="#e6e6e6"/><path d="M1380 449v-32a8 8 0 0 1 8-8h304a8 8 0 0 1 8 8v32" fill="#ccc"/><path d="M1380 417a8 8 0 0 1 8-8h304a8 8 0 0 1 8 8v152a8 8 0 0 1-8 8h-304a8 8 0 0 1-8-8zM1380 449h320M1440 449v128M1604.46 449v128" stroke="#333" fill="none"/><use xlink:href="#I" transform="matrix(1,0,0,1,1390,409) translate(114.525 23.6)"/><use xlink:href="#m" transform="matrix(1,0,0,1,1385,451.5) translate(13 17.1)"/><use xlink:href="#J" transform="matrix(1,0,0,1,1445,451.5) translate(39.55 17.1)"/><use xlink:href="#o" transform="matrix(1,0,0,1,1609.4614014005388,451.5) translate(33.525 17.1)"/><use xlink:href="#A" transform="matrix(1,0,0,1,1385,483.5) translate(13.524999999999999 17.1)"/><use xlink:href="#B" transform="matrix(1,0,0,1,1445,483.5) translate(36.074999999999996 17.1)"/><use xlink:href="#o" transform="matrix(1,0,0,1,1609.4614014005388,483.5) translate(33.525 17.1)"/><use xlink:href="#K" transform="matrix(1,0,0,1,1445,515.5) translate(21.049999999999997 17.1)"/><use xlink:href="#u" transform="matrix(1,0,0,1,1609.4614014005388,515.5) translate(8.549999999999997 17.1)"/><use xlink:href="#L" transform="matrix(1,0,0,1,1445,547.5) translate(9.574999999999989 17.1)"/><use xlink:href="#u" transform="matrix(1,0,0,1,1609.4614014005388,547.5) translate(8.549999999999997 17.1)"/><path d="M520 525a8 8 0 0 1 8-8h304a8 8 0 0 1 8 8v184a8 8 0 0 1-8 8H528a8 8 0 0 1-8-8z" fill="#fff"/><path d="M520 589v33h320v-33M520 653v33h320v-33" fill="#e6e6e6"/><path d="M520 557v-32a8 8 0 0 1 8-8h304a8 8 0 0 1 8 8v32" fill="#ccc"/><path d="M520 525a8 8 0 0 1 8-8h304a8 8 0 0 1 8 8v184a8 8 0 0 1-8 8H528a8 8 0 0 1-8-8zM520 557h320M580 557v160M736.82 557v160" stroke="#333" fill="none"/><use xlink:href="#M" transform="matrix(1,0,0,1,529.9999999999999,517) translate(118.1 23.6)"/><use xlink:href="#m" transform="matrix(1,0,0,1,524.9999999999999,559.5) translate(13 17.1)"/><use xlink:href="#N" transform="matrix(1,0,0,1,584.9999999999999,559.5) translate(34.12499999999999 17.1)"/><use xlink:href="#o" transform="matrix(1,0,0,1,741.8165418713497,559.5) translate(37.525 17.1)"/><use xlink:href="#A" transform="matrix(1,0,0,1,524.9999999999999,591.5) translate(13.524999999999999 17.1)"/><use xlink:href="#B" transform="matrix(1,0,0,1,584.9999999999999,591.5) translate(32.074999999999996 17.1)"/><use xlink:href="#o" transform="matrix(1,0,0,1,741.8165418713497,591.5) translate(37.525 17.1)"/><use xlink:href="#p" transform="matrix(1,0,0,1,584.9999999999999,623.5) translate(43.05 17.1)"/><use xlink:href="#q" transform="matrix(1,0,0,1,741.8165418713497,623.5) translate(17.049999999999997 17.1)"/><use xlink:href="#D" transform="matrix(1,0,0,1,584.9999999999999,655.5) translate(52.025 17.1)"/><use xlink:href="#E" transform="matrix(1,0,0,1,741.8165418713497,655.5) translate(16.074999999999996 17.1)"/><use xlink:href="#O" transform="matrix(1,0,0,1,584.9999999999999,687.5) translate(12.549999999999997 17.1)"/><use xlink:href="#P" transform="matrix(1,0,0,1,741.8165418713497,687.5) translate(12.549999999999997 17.1)"/><path d="M120 645a8 8 0 0 1 8-8h364a8 8 0 0 1 8 8v184a8 8 0 0 1-8 8H128a8 8 0 0 1-8-8z" fill="#fff"/><path d="M120 709v33h380v-33M120 773v33h380v-33" fill="#e6e6e6"/><path d="M120 677v-32a8 8 0 0 1 8-8h364a8 8 0 0 1 8 8v32" fill="#ccc"/><path d="M120 645a8 8 0 0 1 8-8h364a8 8 0 0 1 8 8v184a8 8 0 0 1-8 8H128a8 8 0 0 1-8-8zM120 677h380M180 677v160M401.77 677v160" stroke="#333" fill="none"/><use xlink:href="#Q" transform="matrix(1,0,0,1,130,637) translate(86.67500000000001 23.6)"/><use xlink:href="#m" transform="matrix(1,0,0,1,125,679.5) translate(13 17.1)"/><use xlink:href="#R" transform="matrix(1,0,0,1,185,679.5) translate(9.700000000000017 17.1)"/><use xlink:href="#o" transform="matrix(1,0,0,1,406.7740043412897,679.5) translate(35.025 17.1)"/><use xlink:href="#A" transform="matrix(1,0,0,1,125,711.5) translate(13.524999999999999 17.1)"/><use xlink:href="#S" transform="matrix(1,0,0,1,185,711.5) translate(37.07499999999999 17.1)"/><use xlink:href="#o" transform="matrix(1,0,0,1,406.7740043412897,711.5) translate(35.025 17.1)"/><use xlink:href="#A" transform="matrix(1,0,0,1,125,743.5) translate(13.524999999999999 17.1)"/><use xlink:href="#T" transform="matrix(1,0,0,1,185,743.5) translate(32.650000000000006 17.1)"/><use xlink:href="#o" transform="matrix(1,0,0,1,406.7740043412897,743.5) translate(35.025 17.1)"/><use xlink:href="#U" transform="matrix(1,0,0,1,185,775.5) translate(81.025 17.1)"/><use xlink:href="#E" transform="matrix(1,0,0,1,406.7740043412897,775.5) translate(13.574999999999996 17.1)"/><use xlink:href="#V" transform="matrix(1,0,0,1,185,807.5) translate(27.075000000000003 17.1)"/><use xlink:href="#u" transform="matrix(1,0,0,1,406.7740043412897,807.5) translate(10.049999999999997 17.1)"/><path d="M973.52 925a8 8 0 0 1 8-8h250.1a8 8 0 0 1 8 8v88a8 8 0 0 1-8 8h-250.1a8 8 0 0 1-8-8z" fill="#fff"/><path d="M973.52 989v24a8 8 0 0 0 8 8h250.1a8 8 0 0 0 8-8v-24" fill="#e6e6e6"/><path d="M973.52 957v-32a8 8 0 0 1 8-8h250.1a8 8 0 0 1 8 8v32" fill="#ccc"/><path d="M973.52 925a8 8 0 0 1 8-8h250.1a8 8 0 0 1 8 8v88a8 8 0 0 1-8 8h-250.1a8 8 0 0 1-8-8zM973.52 957h266.1M1033.52 957v64M1179.62 957v64" stroke="#333" fill="none"/><use xlink:href="#W" transform="matrix(1,0,0,1,983.5243750079453,917) translate(62.5 23.6)"/><use xlink:href="#A" transform="matrix(1,0,0,1,978.5243750079453,959.5) translate(13.524999999999999 17.1)"/><use xlink:href="#B" transform="matrix(1,0,0,1,1038.5243750079453,959.5) translate(27.074999999999996 17.1)"/><use xlink:href="#o" transform="matrix(1,0,0,1,1184.622177777398,959.5) translate(15.525 17.1)"/><use xlink:href="#A" transform="matrix(1,0,0,1,978.5243750079453,991.5) translate(13.524999999999999 17.1)"/><use xlink:href="#X" transform="matrix(1,0,0,1,1038.5243750079453,991.5) translate(6.049999999999997 17.1)"/><use xlink:href="#o" transform="matrix(1,0,0,1,1184.622177777398,991.5) translate(15.525 17.1)"/><path d="M60 905a8 8 0 0 1 8-8h344a8 8 0 0 1 8 8v248a8 8 0 0 1-8 8H68a8 8 0 0 1-8-8z" fill="#fff"/><path d="M60 969v33h360v-33M60 1033v33h360v-33M60 1097v33h360v-33" fill="#e6e6e6"/><path d="M60 937v-32a8 8 0 0 1 8-8h344a8 8 0 0 1 8 8v32" fill="#ccc"/><path d="M60 905a8 8 0 0 1 8-8h344a8 8 0 0 1 8 8v248a8 8 0 0 1-8 8H68a8 8 0 0 1-8-8zM60 937h360M120 937v224M308.3 937v224" stroke="#333" fill="none"/><use xlink:href="#Y" transform="matrix(1,0,0,1,70,897) translate(114.55 23.6)"/><use xlink:href="#m" transform="matrix(1,0,0,1,65,939.5) translate(13 17.1)"/><use xlink:href="#Z" transform="matrix(1,0,0,1,125,939.5) translate(31.574999999999996 17.1)"/><use xlink:href="#o" transform="matrix(1,0,0,1,313.31158234141407,939.5) translate(41.525 17.1)"/><use xlink:href="#A" transform="matrix(1,0,0,1,65,971.5) translate(13.524999999999999 17.1)"/><use xlink:href="#aa" transform="matrix(1,0,0,1,125,971.5) translate(32.55 17.1)"/><use xlink:href="#o" transform="matrix(1,0,0,1,313.31158234141407,971.5) translate(41.525 17.1)"/><use xlink:href="#A" transform="matrix(1,0,0,1,65,1003.5) translate(13.524999999999999 17.1)"/><use xlink:href="#ab" transform="matrix(1,0,0,1,125,1003.5) translate(28.525 17.1)"/><use xlink:href="#o" transform="matrix(1,0,0,1,313.31158234141407,1003.5) translate(41.525 17.1)"/><use xlink:href="#U" transform="matrix(1,0,0,1,125,1035.5) translate(64.525 17.1)"/><use xlink:href="#E" transform="matrix(1,0,0,1,313.31158234141407,1035.5) translate(20.074999999999996 17.1)"/><use xlink:href="#ac" transform="matrix(1,0,0,1,125,1067.5) translate(24.07499999999999 17.1)"/><use xlink:href="#w" transform="matrix(1,0,0,1,313.31158234141407,1067.5) translate(28.525 17.1)"/><use xlink:href="#ad" transform="matrix(1,0,0,1,125,1099.5) translate(16.549999999999997 17.1)"/><use xlink:href="#u" transform="matrix(1,0,0,1,313.31158234141407,1099.5) translate(16.549999999999997 17.1)"/><use xlink:href="#ae" transform="matrix(1,0,0,1,125,1131.5) translate(11.550000000000011 17.1)"/><use xlink:href="#w" transform="matrix(1,0,0,1,313.31158234141407,1131.5) translate(28.525 17.1)"/><path d="M1320.5 632.8h7.5a12 12 0 0 0 12-12V509a12 12 0 0 1 12-12h8.1M1300.5 632.8h20m0 10v-20M1379.28 497h-20m20-10l-20 10m20 10l-20-10M899.5 632.8H892a12 12 0 0 1-12-12v-3.84a12 12 0 0 0-12-12h-8.1M919.5 632.8h-20m0-10v20M840.72 604.96h20m-20 10l20-10m-20-10l20 10M499.5 572.86h-408a12 12 0 0 0-12 12v160.2a12 12 0 0 0 12 12h8.6M519.5 572.86h-20m0-10v20M119.28 757.05h-20m20-10l-20 10m20 10l-20-10M899.5 632.8H892a12 12 0 0 0-12 12V893a12 12 0 0 1-12 12h-8.1M919.5 632.8h-20m0-10v20M840.72 905h20m-20 10l20-10m-20-10l20 10M499.5 873H482a12 12 0 0 0-12 12v87.88a12 12 0 0 1-12 12h-18.1M519.5 873h-20m0-10v20M420.72 984.88h20m-20 10l20-10m-20-10l20 10" stroke="#333" fill="none"/><path d="M500.1 873H482a12 12 0 0 0-12 12v119.97a12 12 0 0 1-12 12h-18.1M519.28 873h-20m20-10l-20 10m20 10l-20-10M420.72 1016.97h20m-20 10l20-10m-20-10l20 10M1320.5 632.8h8a12 12 0 0 1 12 12v316.22a12 12 0 0 1-12 12h-68.97M1300.5 632.8h20m0 10v-20M1240.35 973h20m-20 10l20-10m-20-10l20 10M860.5 873H875c0-2.76 2.24-5 5-5s5 2.24 5 5h10.88a10.88 10.88 0 0 1 10.88 10.88V961a12 12 0 0 0 12 12h34.26M840.5 873h20m0 10v-20M973.02 973h-20m0-10v20" stroke="#333" fill="none"/><defs><path d="M24-248c120-7 223 5 221 122C244-46 201 0 124 0H24v-248zM76-40c74 7 117-18 117-86 0-67-45-88-117-82v168" id="af"/><path d="M25-224v-37h50v37H25zM25 0v-190h50V0H25" id="ag"/><path d="M133-34C117-15 103 5 69 4 32 3 11-16 11-54c-1-60 55-63 116-61 1-26-3-47-28-47-18 1-26 9-28 27l-52-2c7-38 36-58 82-57s74 22 75 68l1 82c-1 14 12 18 25 15v27c-30 8-71 5-69-32zm-48 3c29 0 43-24 42-57-32 0-66-3-65 30 0 17 8 27 23 27" id="ah"/><path d="M195-6C206 82 75 100 31 46c-4-6-6-13-8-21l49-6c3 16 16 24 34 25 40 0 42-37 40-79-11 22-30 35-61 35-53 0-70-43-70-97 0-56 18-96 73-97 30 0 46 14 59 34l2-30h47zm-90-29c32 0 41-27 41-63 0-35-9-62-40-62-32 0-39 29-40 63 0 36 9 62 39 62" id="ai"/><path d="M135-150c-39-12-60 13-60 57V0H25l-1-190h47c2 13-1 29 3 40 6-28 27-53 61-41v41" id="aj"/><path d="M220-157c-53 9-28 100-34 157h-49v-107c1-27-5-49-29-50C55-147 81-57 75 0H25l-1-190h47c2 12-1 28 3 38 10-53 101-56 108 0 13-22 24-43 59-42 82 1 51 116 57 194h-49v-107c-1-25-5-48-29-50" id="ak"/><g id="a"><use transform="matrix(0.0728395061728395,0,0,0.0728395061728395,0,0)" xlink:href="#af"/><use transform="matrix(0.0728395061728395,0,0,0.0728395061728395,18.86543209876543,0)" xlink:href="#ag"/><use transform="matrix(0.0728395061728395,0,0,0.0728395061728395,26.14938271604938,0)" xlink:href="#ah"/><use transform="matrix(0.0728395061728395,0,0,0.0728395061728395,40.717283950617286,0)" xlink:href="#ai"/><use transform="matrix(0.0728395061728395,0,0,0.0728395061728395,56.66913580246913,0)" xlink:href="#aj"/><use transform="matrix(0.0728395061728395,0,0,0.0728395061728395,66.86666666666666,0)" xlink:href="#ah"/><use transform="matrix(0.0728395061728395,0,0,0.0728395061728395,81.43456790123457,0)" xlink:href="#ak"/><use transform="matrix(0.0728395061728395,0,0,0.0728395061728395,104.7432098765432,0)" xlink:href="#ah"/></g><path d="M24 0v-248h195v40H76v63h132v40H76v65h150V0H24" id="al"/><path d="M135-194c87-1 58 113 63 194h-50c-7-57 23-157-34-157-59 0-34 97-39 157H25l-1-190h47c2 12-1 28 3 38 12-26 28-41 61-42" id="am"/><path d="M115-3C79 11 28 4 28-45v-112H4v-33h27l15-45h31v45h36v33H77v99c-1 23 16 31 38 25v30" id="an"/><path d="M88-194c31-1 46 15 58 34l-1-101h50l1 261h-48c-2-10 0-23-3-31C134-8 116 4 84 4 32 4 16-41 15-95c0-56 19-97 73-99zm17 164c33 0 40-30 41-66 1-37-9-64-41-64s-38 30-39 65c0 43 13 65 39 65" id="ao"/><g id="b"><use transform="matrix(0.0728395061728395,0,0,0.0728395061728395,0,0)" xlink:href="#al"/><use transform="matrix(0.0728395061728395,0,0,0.0728395061728395,17.48148148148148,0)" xlink:href="#am"/><use transform="matrix(0.0728395061728395,0,0,0.0728395061728395,33.43333333333333,0)" xlink:href="#an"/><use transform="matrix(0.0728395061728395,0,0,0.0728395061728395,42.10123456790124,0)" xlink:href="#ag"/><use transform="matrix(0.0728395061728395,0,0,0.0728395061728395,49.38518518518518,0)" xlink:href="#ao"/><use transform="matrix(0.0728395061728395,0,0,0.0728395061728395,65.33703703703704,0)" xlink:href="#ah"/><use transform="matrix(0.0728395061728395,0,0,0.0728395061728395,79.90493827160493,0)" xlink:href="#ao"/></g><path d="M240-174c0 40-23 61-54 70L253 0h-59l-57-94H76V0H24v-248c93 4 217-23 216 74zM76-134c48-2 112 12 112-38 0-48-66-32-112-35v73" id="ap"/><path d="M185-48c-13 30-37 53-82 52C43 2 14-33 14-96s30-98 90-98c62 0 83 45 84 108H66c0 31 8 55 39 56 18 0 30-7 34-22zm-45-69c5-46-57-63-70-21-2 6-4 13-4 21h74" id="aq"/><path d="M25 0v-261h50V0H25" id="ar"/><path d="M190-63c-7 42-38 67-86 67-59 0-84-38-90-98-12-110 154-137 174-36l-49 2c-2-19-15-32-35-32-30 0-35 28-38 64-6 74 65 87 74 30" id="as"/><path d="M110-194c64 0 96 36 96 99 0 64-35 99-97 99-61 0-95-36-95-99 0-62 34-99 96-99zm-1 164c35 0 45-28 45-65 0-40-10-65-43-65-34 0-45 26-45 65 0 36 10 65 43 65" id="at"/><g id="c"><use transform="matrix(0.0728395061728395,0,0,0.0728395061728395,0,0)" xlink:href="#ap"/><use transform="matrix(0.0728395061728395,0,0,0.0728395061728395,18.86543209876543,0)" xlink:href="#aq"/><use transform="matrix(0.0728395061728395,0,0,0.0728395061728395,33.43333333333333,0)" xlink:href="#ar"/><use transform="matrix(0.0728395061728395,0,0,0.0728395061728395,40.717283950617286,0)" xlink:href="#ah"/><use transform="matrix(0.0728395061728395,0,0,0.0728395061728395,55.28518518518518,0)" xlink:href="#as"/><use transform="matrix(0.0728395061728395,0,0,0.0728395061728395,69.85308641975308,0)" xlink:href="#ag"/><use transform="matrix(0.0728395061728395,0,0,0.0728395061728395,77.13703703703703,0)" xlink:href="#at"/><use transform="matrix(0.0728395061728395,0,0,0.0728395061728395,93.08888888888889,0)" xlink:href="#am"/></g><path d="M169-182c-1-43-94-46-97-3 18 66 151 10 154 114 3 95-165 93-204 36-6-8-10-19-12-30l50-8c3 46 112 56 116 5-17-69-150-10-154-114-4-87 153-88 188-35 5 8 8 18 10 28" id="au"/><path d="M137-138c1-29-70-34-71-4 15 46 118 7 119 86 1 83-164 76-172 9l43-7c4 19 20 25 44 25 33 8 57-30 24-41C81-84 22-81 20-136c-2-80 154-74 161-7" id="av"/><g id="d"><use transform="matrix(0.0728395061728395,0,0,0.0728395061728395,0,0)" xlink:href="#au"/><use transform="matrix(0.0728395061728395,0,0,0.0728395061728395,17.48148148148148,0)" xlink:href="#ag"/><use transform="matrix(0.0728395061728395,0,0,0.0728395061728395,24.76543209876543,0)" xlink:href="#av"/><use transform="matrix(0.0728395061728395,0,0,0.0728395061728395,39.333333333333336,0)" xlink:href="#an"/><use transform="matrix(0.0728395061728395,0,0,0.0728395061728395,48.00123456790123,0)" xlink:href="#aq"/><use transform="matrix(0.0728395061728395,0,0,0.0728395061728395,62.56913580246913,0)" xlink:href="#ak"/><use transform="matrix(0.0728395061728395,0,0,0.0728395061728395,85.87777777777777,0)" xlink:href="#ah"/></g><g id="e"><use transform="matrix(0.0728395061728395,0,0,0.0728395061728395,0,0)" xlink:href="#ao"/><use transform="matrix(0.0728395061728395,0,0,0.0728395061728395,15.95185185185185,0)" xlink:href="#aq"/></g><path d="M136-208V0H84v-208H4v-40h212v40h-80" id="aw"/><g id="f"><use transform="matrix(0.0728395061728395,0,0,0.0728395061728395,0,0)" xlink:href="#aw"/><use transform="matrix(0.0728395061728395,0,0,0.0728395061728395,14.495061728395061,0)" xlink:href="#aj"/><use transform="matrix(0.0728395061728395,0,0,0.0728395061728395,24.69259259259259,0)" xlink:href="#ah"/><use transform="matrix(0.0728395061728395,0,0,0.0728395061728395,39.26049382716049,0)" xlink:href="#am"/><use transform="matrix(0.0728395061728395,0,0,0.0728395061728395,55.21234567901234,0)" xlink:href="#av"/><use transform="matrix(0.0728395061728395,0,0,0.0728395061728395,69.78024691358024,0)" xlink:href="#ah"/><use transform="matrix(0.0728395061728395,0,0,0.0728395061728395,84.34814814814814,0)" xlink:href="#as"/><use transform="matrix(0.0728395061728395,0,0,0.0728395061728395,98.91604938271605,0)" xlink:href="#as"/><use transform="matrix(0.0728395061728395,0,0,0.0728395061728395,113.48395061728394,0)" xlink:href="#ag"/><use transform="matrix(0.0728395061728395,0,0,0.0728395061728395,120.76790123456789,0)" xlink:href="#at"/><use transform="matrix(0.0728395061728395,0,0,0.0728395061728395,136.71975308641973,0)" xlink:href="#am"/><use transform="matrix(0.0728395061728395,0,0,0.0728395061728395,152.67160493827157,0)" xlink:href="#aq"/><use transform="matrix(0.0728395061728395,0,0,0.0728395061728395,167.23950617283947,0)" xlink:href="#av"/></g><path d="M182-130c37 4 62 22 62 59C244 23 116-4 24 0v-248c84 5 203-23 205 63 0 31-19 50-47 55zM76-148c40-3 101 13 101-30 0-44-60-28-101-31v61zm0 110c48-3 116 14 116-37 0-48-69-32-116-35v72" id="ax"/><g id="g"><use transform="matrix(0.0728395061728395,0,0,0.0728395061728395,0,0)" xlink:href="#ax"/><use transform="matrix(0.0728395061728395,0,0,0.0728395061728395,18.86543209876543,0)" xlink:href="#ah"/><use transform="matrix(0.0728395061728395,0,0,0.0728395061728395,33.43333333333333,0)" xlink:href="#am"/><use transform="matrix(0.0728395061728395,0,0,0.0728395061728395,49.38518518518518,0)" xlink:href="#as"/><use transform="matrix(0.0728395061728395,0,0,0.0728395061728395,63.95308641975308,0)" xlink:href="#ah"/><use transform="matrix(0.0728395061728395,0,0,0.0728395061728395,78.52098765432098,0)" xlink:href="#aj"/><use transform="matrix(0.0728395061728395,0,0,0.0728395061728395,88.7185185185185,0)" xlink:href="#ag"/><use transform="matrix(0.0728395061728395,0,0,0.0728395061728395,96.00246913580246,0)" xlink:href="#ah"/><use transform="matrix(0.0728395061728395,0,0,0.0728395061728395,110.57037037037036,0)" xlink:href="#av"/></g><path d="M153-248C145-148 188 4 80 4 36 3 13-21 6-62l32-5c4 25 16 42 43 43 27 0 39-20 39-49v-147H72v-28h81" id="ay"/><path d="M84 4C-5 8 30-112 23-190h32v120c0 31 7 50 39 49 72-2 45-101 50-169h31l1 190h-30c-1-10 1-25-2-33-11 22-28 36-60 37" id="az"/><path d="M141-36C126-15 110 5 73 4 37 3 15-17 15-53c-1-64 63-63 125-63 3-35-9-54-41-54-24 1-41 7-42 31l-33-3c5-37 33-52 76-52 45 0 72 20 72 64v82c-1 20 7 32 28 27v20c-31 9-61-2-59-35zM48-53c0 20 12 33 32 33 41-3 63-29 60-74-43 2-92-5-92 41" id="aA"/><path d="M117-194c89-4 53 116 60 194h-32v-121c0-31-8-49-39-48C34-167 62-67 57 0H25l-1-190h30c1 10-1 24 2 32 11-22 29-35 61-36" id="aB"/><g id="h"><use transform="matrix(0.06172839506172839,0,0,0.06172839506172839,0,0)" xlink:href="#ay"/><use transform="matrix(0.06172839506172839,0,0,0.06172839506172839,11.11111111111111,0)" xlink:href="#az"/><use transform="matrix(0.06172839506172839,0,0,0.06172839506172839,23.45679012345679,0)" xlink:href="#aA"/><use transform="matrix(0.06172839506172839,0,0,0.06172839506172839,35.80246913580247,0)" xlink:href="#aB"/></g><path d="M30 0v-248h187v28H63v79h144v27H63v87h162V0H30" id="aC"/><path d="M135-143c-3-34-86-38-87 0 15 53 115 12 119 90S17 21 10-45l28-5c4 36 97 45 98 0-10-56-113-15-118-90-4-57 82-63 122-42 12 7 21 19 24 35" id="aD"/><path d="M59-47c-2 24 18 29 38 22v24C64 9 27 4 27-40v-127H5v-23h24l9-43h21v43h35v23H59v120" id="aE"/><path d="M100-194c63 0 86 42 84 106H49c0 40 14 67 53 68 26 1 43-12 49-29l28 8c-11 28-37 45-77 45C44 4 14-33 15-96c1-61 26-98 85-98zm52 81c6-60-76-77-97-28-3 7-6 17-6 28h103" id="aF"/><path d="M115-194c53 0 69 39 70 98 0 66-23 100-70 100C84 3 66-7 56-30L54 0H23l1-261h32v101c10-23 28-34 59-34zm-8 174c40 0 45-34 45-75 0-40-5-75-45-74-42 0-51 32-51 76 0 43 10 73 51 73" id="aG"/><g id="i"><use transform="matrix(0.06172839506172839,0,0,0.06172839506172839,0,0)" xlink:href="#aC"/><use transform="matrix(0.06172839506172839,0,0,0.06172839506172839,14.814814814814813,0)" xlink:href="#aD"/><use transform="matrix(0.06172839506172839,0,0,0.06172839506172839,25.925925925925924,0)" xlink:href="#aE"/><use transform="matrix(0.06172839506172839,0,0,0.06172839506172839,32.098765432098766,0)" xlink:href="#aF"/><use transform="matrix(0.06172839506172839,0,0,0.06172839506172839,44.44444444444444,0)" xlink:href="#aG"/><use transform="matrix(0.06172839506172839,0,0,0.06172839506172839,56.79012345679012,0)" xlink:href="#aA"/><use transform="matrix(0.06172839506172839,0,0,0.06172839506172839,69.1358024691358,0)" xlink:href="#aB"/></g><path d="M240 0l2-218c-23 76-54 145-80 218h-23L58-218 59 0H30v-248h44l77 211c21-75 51-140 76-211h43V0h-30" id="aH"/><path d="M118-194c89-4 53 116 60 194h-32v-121c0-31-8-49-39-48C35-167 63-67 58 0H26l-1-190h30c1 10-1 24 2 32 11-22 29-35 61-36zm47-64c-3 23-9 48-36 47-26-1-65-44-74 0H39c4-23 8-48 36-47s64 44 74 0h16" id="aI"/><path d="M100-194c62-1 85 37 85 99 1 63-27 99-86 99S16-35 15-95c0-66 28-99 85-99zM99-20c44 1 53-31 53-75 0-43-8-75-51-75s-53 32-53 75 10 74 51 75" id="aJ"/><path d="M9 0v-24l116-142H16v-24h144v24L44-24h123V0H9" id="aK"/><g id="j"><use transform="matrix(0.06172839506172839,0,0,0.06172839506172839,0,0)" xlink:href="#aH"/><use transform="matrix(0.06172839506172839,0,0,0.06172839506172839,18.456790123456788,0)" xlink:href="#az"/><use transform="matrix(0.06172839506172839,0,0,0.06172839506172839,30.80246913580247,0)" xlink:href="#aI"/><use transform="matrix(0.06172839506172839,0,0,0.06172839506172839,43.148148148148145,0)" xlink:href="#aJ"/><use transform="matrix(0.06172839506172839,0,0,0.06172839506172839,55.49382716049382,0)" xlink:href="#aK"/></g><path d="M212-179c-10-28-35-45-73-45-59 0-87 40-87 99 0 60 29 101 89 101 43 0 62-24 78-52l27 14C228-24 195 4 139 4 59 4 22-46 18-125c-6-104 99-153 187-111 19 9 31 26 39 46" id="aL"/><g id="k"><use transform="matrix(0.06172839506172839,0,0,0.06172839506172839,0,0)" xlink:href="#aL"/><use transform="matrix(0.06172839506172839,0,0,0.06172839506172839,15.987654320987653,0)" xlink:href="#aA"/><use transform="matrix(0.06172839506172839,0,0,0.06172839506172839,28.333333333333332,0)" xlink:href="#aB"/><use transform="matrix(0.06172839506172839,0,0,0.06172839506172839,40.67901234567901,0)" xlink:href="#aJ"/></g><path d="M232-93c-1 65-40 97-104 97C67 4 28-28 28-90v-158h33c8 89-33 224 67 224 102 0 64-133 71-224h33v155" id="aM"/><path d="M114-163C36-179 61-72 57 0H25l-1-190h30c1 12-1 29 2 39 6-27 23-49 58-41v29" id="aN"/><path d="M24-231v-30h32v30H24zM24 0v-190h32V0H24" id="aO"/><g id="l"><use transform="matrix(0.05,0,0,0.05,0,0)" xlink:href="#aM"/><use transform="matrix(0.05,0,0,0.05,12.950000000000001,0)" xlink:href="#aD"/><use transform="matrix(0.05,0,0,0.05,21.950000000000003,0)" xlink:href="#az"/><use transform="matrix(0.05,0,0,0.05,31.950000000000003,0)" xlink:href="#aA"/><use transform="matrix(0.05,0,0,0.05,41.95,0)" xlink:href="#aN"/><use transform="matrix(0.05,0,0,0.05,47.900000000000006,0)" xlink:href="#aO"/><use transform="matrix(0.05,0,0,0.05,51.85,0)" xlink:href="#aJ"/></g><path d="M30-248c87 1 191-15 191 75 0 78-77 80-158 76V0H30v-248zm33 125c57 0 124 11 124-50 0-59-68-47-124-48v98" id="aP"/><path d="M194 0L95-120 63-95V0H30v-248h33v124l119-124h40L117-140 236 0h-42" id="aQ"/><g id="m"><use transform="matrix(0.05,0,0,0.05,0,0)" xlink:href="#aP"/><use transform="matrix(0.05,0,0,0.05,12,0)" xlink:href="#aQ"/></g><path d="M85-194c31 0 48 13 60 33l-1-100h32l1 261h-30c-2-10 0-23-3-31C134-8 116 4 85 4 32 4 16-35 15-94c0-66 23-100 70-100zm9 24c-40 0-46 34-46 75 0 40 6 74 45 74 42 0 51-32 51-76 0-42-9-74-50-73" id="aR"/><g id="n"><use transform="matrix(0.05,0,0,0.05,0,0)" xlink:href="#aR"/><use transform="matrix(0.05,0,0,0.05,10,0)" xlink:href="#aB"/><use transform="matrix(0.05,0,0,0.05,20,0)" xlink:href="#aO"/></g><g id="o"><use transform="matrix(0.05,0,0,0.05,0,0)" xlink:href="#aO"/><use transform="matrix(0.05,0,0,0.05,3.95,0)" xlink:href="#aB"/><use transform="matrix(0.05,0,0,0.05,13.949999999999998,0)" xlink:href="#aE"/></g><path d="M210-169c-67 3-38 105-44 169h-31v-121c0-29-5-50-35-48C34-165 62-65 56 0H25l-1-190h30c1 10-1 24 2 32 10-44 99-50 107 0 11-21 27-35 58-36 85-2 47 119 55 194h-31v-121c0-29-5-49-35-48" id="aS"/><g id="p"><use transform="matrix(0.05,0,0,0.05,0,0)" xlink:href="#aB"/><use transform="matrix(0.05,0,0,0.05,10,0)" xlink:href="#aJ"/><use transform="matrix(0.05,0,0,0.05,20,0)" xlink:href="#aS"/><use transform="matrix(0.05,0,0,0.05,34.95,0)" xlink:href="#aG"/><use transform="matrix(0.05,0,0,0.05,44.95,0)" xlink:href="#aN"/><use transform="matrix(0.05,0,0,0.05,50.900000000000006,0)" xlink:href="#aF"/></g><path d="M108 0H70L1-190h34L89-25l56-165h34" id="aT"/><path d="M96-169c-40 0-48 33-48 73s9 75 48 75c24 0 41-14 43-38l32 2c-6 37-31 61-74 61-59 0-76-41-82-99-10-93 101-131 147-64 4 7 5 14 7 22l-32 3c-4-21-16-35-41-35" id="aU"/><path d="M106-169C34-169 62-67 57 0H25v-261h32l-1 103c12-21 28-36 61-36 89 0 53 116 60 194h-32v-121c2-32-8-49-39-48" id="aV"/><g id="q"><use transform="matrix(0.05,0,0,0.05,0,0)" xlink:href="#aT"/><use transform="matrix(0.05,0,0,0.05,9,0)" xlink:href="#aA"/><use transform="matrix(0.05,0,0,0.05,19,0)" xlink:href="#aN"/><use transform="matrix(0.05,0,0,0.05,24.95,0)" xlink:href="#aU"/><use transform="matrix(0.05,0,0,0.05,33.95,0)" xlink:href="#aV"/><use transform="matrix(0.05,0,0,0.05,43.95,0)" xlink:href="#aA"/><use transform="matrix(0.05,0,0,0.05,53.95,0)" xlink:href="#aN"/></g><path d="M24 0v-261h32V0H24" id="aW"/><g id="r"><use transform="matrix(0.05,0,0,0.05,0,0)" xlink:href="#aF"/><use transform="matrix(0.05,0,0,0.05,10,0)" xlink:href="#aS"/><use transform="matrix(0.05,0,0,0.05,24.950000000000003,0)" xlink:href="#aA"/><use transform="matrix(0.05,0,0,0.05,34.95,0)" xlink:href="#aO"/><use transform="matrix(0.05,0,0,0.05,38.900000000000006,0)" xlink:href="#aW"/></g><path d="M101-234c-31-9-42 10-38 44h38v23H63V0H32v-167H5v-23h27c-7-52 17-82 69-68v24" id="aX"/><g id="s"><use transform="matrix(0.05,0,0,0.05,0,0)" xlink:href="#aE"/><use transform="matrix(0.05,0,0,0.05,5,0)" xlink:href="#aF"/><use transform="matrix(0.05,0,0,0.05,15,0)" xlink:href="#aW"/><use transform="matrix(0.05,0,0,0.05,18.95,0)" xlink:href="#aF"/><use transform="matrix(0.05,0,0,0.05,28.950000000000003,0)" xlink:href="#aX"/><use transform="matrix(0.05,0,0,0.05,33.95,0)" xlink:href="#aJ"/><use transform="matrix(0.05,0,0,0.05,43.95,0)" xlink:href="#aB"/><use transform="matrix(0.05,0,0,0.05,53.95,0)" xlink:href="#aJ"/></g><path d="M-5 72V49h209v23H-5" id="aY"/><g id="t"><use transform="matrix(0.05,0,0,0.05,0,0)" xlink:href="#aX"/><use transform="matrix(0.05,0,0,0.05,5,0)" xlink:href="#aF"/><use transform="matrix(0.05,0,0,0.05,15,0)" xlink:href="#aU"/><use transform="matrix(0.05,0,0,0.05,24,0)" xlink:href="#aV"/><use transform="matrix(0.05,0,0,0.05,34,0)" xlink:href="#aA"/><use transform="matrix(0.05,0,0,0.05,44,0)" xlink:href="#aY"/><use transform="matrix(0.05,0,0,0.05,54,0)" xlink:href="#aU"/><use transform="matrix(0.05,0,0,0.05,63,0)" xlink:href="#aN"/><use transform="matrix(0.05,0,0,0.05,68.95,0)" xlink:href="#aF"/><use transform="matrix(0.05,0,0,0.05,78.95,0)" xlink:href="#aA"/><use transform="matrix(0.05,0,0,0.05,88.95,0)" xlink:href="#aU"/><use transform="matrix(0.05,0,0,0.05,97.95,0)" xlink:href="#aO"/><use transform="matrix(0.05,0,0,0.05,101.9,0)" xlink:href="#aJ"/><use transform="matrix(0.05,0,0,0.05,111.9,0)" xlink:href="#aB"/><use transform="matrix(0.05,0,0,0.05,121.9,0)" xlink:href="#aY"/><use transform="matrix(0.05,0,0,0.05,131.9,0)" xlink:href="#az"/><use transform="matrix(0.05,0,0,0.05,141.9,0)" xlink:href="#aD"/><use transform="matrix(0.05,0,0,0.05,150.9,0)" xlink:href="#az"/><use transform="matrix(0.05,0,0,0.05,160.9,0)" xlink:href="#aA"/><use transform="matrix(0.05,0,0,0.05,170.9,0)" xlink:href="#aN"/><use transform="matrix(0.05,0,0,0.05,176.85,0)" xlink:href="#aO"/><use transform="matrix(0.05,0,0,0.05,180.79999999999998,0)" xlink:href="#aJ"/></g><g id="u"><use transform="matrix(0.05,0,0,0.05,0,0)" xlink:href="#aR"/><use transform="matrix(0.05,0,0,0.05,10,0)" xlink:href="#aA"/><use transform="matrix(0.05,0,0,0.05,20,0)" xlink:href="#aE"/><use transform="matrix(0.05,0,0,0.05,25,0)" xlink:href="#aF"/><use transform="matrix(0.05,0,0,0.05,35,0)" xlink:href="#aE"/><use transform="matrix(0.05,0,0,0.05,40,0)" xlink:href="#aO"/><use transform="matrix(0.05,0,0,0.05,43.95,0)" xlink:href="#aS"/><use transform="matrix(0.05,0,0,0.05,58.900000000000006,0)" xlink:href="#aF"/></g><g id="v"><use transform="matrix(0.05,0,0,0.05,0,0)" xlink:href="#aF"/><use transform="matrix(0.05,0,0,0.05,10,0)" xlink:href="#aD"/><use transform="matrix(0.05,0,0,0.05,19,0)" xlink:href="#aE"/><use transform="matrix(0.05,0,0,0.05,24,0)" xlink:href="#aA"/><use transform="matrix(0.05,0,0,0.05,34,0)" xlink:href="#aR"/><use transform="matrix(0.05,0,0,0.05,44,0)" xlink:href="#aJ"/><use transform="matrix(0.05,0,0,0.05,54,0)" xlink:href="#aY"/><use transform="matrix(0.05,0,0,0.05,64,0)" xlink:href="#aU"/><use transform="matrix(0.05,0,0,0.05,73,0)" xlink:href="#az"/><use transform="matrix(0.05,0,0,0.05,83,0)" xlink:href="#aF"/><use transform="matrix(0.05,0,0,0.05,93,0)" xlink:href="#aB"/><use transform="matrix(0.05,0,0,0.05,103,0)" xlink:href="#aE"/><use transform="matrix(0.05,0,0,0.05,108,0)" xlink:href="#aA"/></g><g id="w"><use transform="matrix(0.05,0,0,0.05,0,0)" xlink:href="#aF"/><use transform="matrix(0.05,0,0,0.05,10,0)" xlink:href="#aB"/><use transform="matrix(0.05,0,0,0.05,20,0)" xlink:href="#az"/><use transform="matrix(0.05,0,0,0.05,30,0)" xlink:href="#aS"/></g><g id="x"><use transform="matrix(0.05,0,0,0.05,0,0)" xlink:href="#aU"/><use transform="matrix(0.05,0,0,0.05,9,0)" xlink:href="#aJ"/><use transform="matrix(0.05,0,0,0.05,19,0)" xlink:href="#aB"/><use transform="matrix(0.05,0,0,0.05,29,0)" xlink:href="#aE"/><use transform="matrix(0.05,0,0,0.05,34,0)" xlink:href="#aN"/><use transform="matrix(0.05,0,0,0.05,39.95,0)" xlink:href="#aA"/><use transform="matrix(0.05,0,0,0.05,49.95,0)" xlink:href="#aD"/><use transform="matrix(0.05,0,0,0.05,58.95,0)" xlink:href="#aF"/><use transform="matrix(0.05,0,0,0.05,68.95,0)" xlink:href="#aB"/><use transform="matrix(0.05,0,0,0.05,78.95,0)" xlink:href="#aO"/><use transform="matrix(0.05,0,0,0.05,82.9,0)" xlink:href="#aA"/></g><g id="y"><use transform="matrix(0.05,0,0,0.05,0,0)" xlink:href="#aU"/><use transform="matrix(0.05,0,0,0.05,9,0)" xlink:href="#az"/><use transform="matrix(0.05,0,0,0.05,19,0)" xlink:href="#aF"/><use transform="matrix(0.05,0,0,0.05,29,0)" xlink:href="#aB"/><use transform="matrix(0.05,0,0,0.05,39,0)" xlink:href="#aE"/><use transform="matrix(0.05,0,0,0.05,44,0)" xlink:href="#aA"/><use transform="matrix(0.05,0,0,0.05,54,0)" xlink:href="#aD"/><use transform="matrix(0.05,0,0,0.05,63,0)" xlink:href="#aY"/><use transform="matrix(0.05,0,0,0.05,73,0)" xlink:href="#az"/><use transform="matrix(0.05,0,0,0.05,83,0)" xlink:href="#aD"/><use transform="matrix(0.05,0,0,0.05,92,0)" xlink:href="#az"/><use transform="matrix(0.05,0,0,0.05,102,0)" xlink:href="#aA"/><use transform="matrix(0.05,0,0,0.05,112,0)" xlink:href="#aN"/><use transform="matrix(0.05,0,0,0.05,117.95,0)" xlink:href="#aO"/><use transform="matrix(0.05,0,0,0.05,121.9,0)" xlink:href="#aJ"/></g><g id="z"><use transform="matrix(0.05,0,0,0.05,0,0)" xlink:href="#aU"/><use transform="matrix(0.05,0,0,0.05,9,0)" xlink:href="#az"/><use transform="matrix(0.05,0,0,0.05,19,0)" xlink:href="#aF"/><use transform="matrix(0.05,0,0,0.05,29,0)" xlink:href="#aB"/><use transform="matrix(0.05,0,0,0.05,39,0)" xlink:href="#aE"/><use transform="matrix(0.05,0,0,0.05,44,0)" xlink:href="#aA"/><use transform="matrix(0.05,0,0,0.05,54,0)" xlink:href="#aY"/><use transform="matrix(0.05,0,0,0.05,64,0)" xlink:href="#aO"/><use transform="matrix(0.05,0,0,0.05,67.95,0)" xlink:href="#aR"/></g><path d="M63-220v92h138v28H63V0H30v-248h175v28H63" id="aZ"/><g id="A"><use transform="matrix(0.05,0,0,0.05,0,0)" xlink:href="#aZ"/><use transform="matrix(0.05,0,0,0.05,10.950000000000001,0)" xlink:href="#aQ"/></g><g id="B"><use transform="matrix(0.05,0,0,0.05,0,0)" xlink:href="#az"/><use transform="matrix(0.05,0,0,0.05,10,0)" xlink:href="#aD"/><use transform="matrix(0.05,0,0,0.05,19,0)" xlink:href="#az"/><use transform="matrix(0.05,0,0,0.05,29,0)" xlink:href="#aA"/><use transform="matrix(0.05,0,0,0.05,39,0)" xlink:href="#aN"/><use transform="matrix(0.05,0,0,0.05,44.95,0)" xlink:href="#aO"/><use transform="matrix(0.05,0,0,0.05,48.900000000000006,0)" xlink:href="#aJ"/><use transform="matrix(0.05,0,0,0.05,58.900000000000006,0)" xlink:href="#aY"/><use transform="matrix(0.05,0,0,0.05,68.9,0)" xlink:href="#aO"/><use transform="matrix(0.05,0,0,0.05,72.85000000000001,0)" xlink:href="#aR"/></g><path d="M115-194c55 1 70 41 70 98S169 2 115 4C84 4 66-9 55-30l1 105H24l-1-265h31l2 30c10-21 28-34 59-34zm-8 174c40 0 45-34 45-75s-6-73-45-74c-42 0-51 32-51 76 0 43 10 73 51 73" id="ba"/><g id="C"><use transform="matrix(0.05,0,0,0.05,0,0)" xlink:href="#aE"/><use transform="matrix(0.05,0,0,0.05,5,0)" xlink:href="#aO"/><use transform="matrix(0.05,0,0,0.05,8.95,0)" xlink:href="#ba"/><use transform="matrix(0.05,0,0,0.05,18.95,0)" xlink:href="#aJ"/><use transform="matrix(0.05,0,0,0.05,28.950000000000003,0)" xlink:href="#aY"/><use transform="matrix(0.05,0,0,0.05,38.95,0)" xlink:href="#aU"/><use transform="matrix(0.05,0,0,0.05,47.95,0)" xlink:href="#az"/><use transform="matrix(0.05,0,0,0.05,57.95,0)" xlink:href="#aF"/><use transform="matrix(0.05,0,0,0.05,67.95,0)" xlink:href="#aB"/><use transform="matrix(0.05,0,0,0.05,77.95,0)" xlink:href="#aE"/><use transform="matrix(0.05,0,0,0.05,82.95,0)" xlink:href="#aA"/></g><g id="D"><use transform="matrix(0.05,0,0,0.05,0,0)" xlink:href="#aD"/><use transform="matrix(0.05,0,0,0.05,9,0)" xlink:href="#aA"/><use transform="matrix(0.05,0,0,0.05,19,0)" xlink:href="#aW"/><use transform="matrix(0.05,0,0,0.05,22.95,0)" xlink:href="#aR"/><use transform="matrix(0.05,0,0,0.05,32.95,0)" xlink:href="#aJ"/></g><g id="E"><use transform="matrix(0.05,0,0,0.05,0,0)" xlink:href="#aR"/><use transform="matrix(0.05,0,0,0.05,10,0)" xlink:href="#aF"/><use transform="matrix(0.05,0,0,0.05,20,0)" xlink:href="#aU"/><use transform="matrix(0.05,0,0,0.05,29,0)" xlink:href="#aO"/><use transform="matrix(0.05,0,0,0.05,32.95,0)" xlink:href="#aS"/><use transform="matrix(0.05,0,0,0.05,47.900000000000006,0)" xlink:href="#aA"/><use transform="matrix(0.05,0,0,0.05,57.900000000000006,0)" xlink:href="#aW"/></g><g id="F"><use transform="matrix(0.05,0,0,0.05,0,0)" xlink:href="#aX"/><use transform="matrix(0.05,0,0,0.05,5,0)" xlink:href="#aF"/><use transform="matrix(0.05,0,0,0.05,15,0)" xlink:href="#aU"/><use transform="matrix(0.05,0,0,0.05,24,0)" xlink:href="#aV"/><use transform="matrix(0.05,0,0,0.05,34,0)" xlink:href="#aA"/><use transform="matrix(0.05,0,0,0.05,44,0)" xlink:href="#aY"/><use transform="matrix(0.05,0,0,0.05,54,0)" xlink:href="#aA"/><use transform="matrix(0.05,0,0,0.05,64,0)" xlink:href="#ba"/><use transform="matrix(0.05,0,0,0.05,74,0)" xlink:href="#aF"/><use transform="matrix(0.05,0,0,0.05,84,0)" xlink:href="#aN"/><use transform="matrix(0.05,0,0,0.05,89.95,0)" xlink:href="#aE"/><use transform="matrix(0.05,0,0,0.05,94.95,0)" xlink:href="#az"/><use transform="matrix(0.05,0,0,0.05,104.95,0)" xlink:href="#aN"/><use transform="matrix(0.05,0,0,0.05,110.9,0)" xlink:href="#aA"/></g><g id="G"><use transform="matrix(0.05,0,0,0.05,0,0)" xlink:href="#aU"/><use transform="matrix(0.05,0,0,0.05,9,0)" xlink:href="#aJ"/><use transform="matrix(0.05,0,0,0.05,19,0)" xlink:href="#aB"/><use transform="matrix(0.05,0,0,0.05,29,0)" xlink:href="#aE"/><use transform="matrix(0.05,0,0,0.05,34,0)" xlink:href="#aN"/><use transform="matrix(0.05,0,0,0.05,39.95,0)" xlink:href="#aA"/><use transform="matrix(0.05,0,0,0.05,49.95,0)" xlink:href="#aD"/><use transform="matrix(0.05,0,0,0.05,58.95,0)" xlink:href="#aF"/><use transform="matrix(0.05,0,0,0.05,68.95,0)" xlink:href="#aB"/><use transform="matrix(0.05,0,0,0.05,78.95,0)" xlink:href="#aO"/><use transform="matrix(0.05,0,0,0.05,82.9,0)" xlink:href="#aA"/></g><g id="H"><use transform="matrix(0.05,0,0,0.05,0,0)" xlink:href="#aT"/><use transform="matrix(0.05,0,0,0.05,9,0)" xlink:href="#aA"/><use transform="matrix(0.05,0,0,0.05,19,0)" xlink:href="#aN"/><use transform="matrix(0.05,0,0,0.05,24.95,0)" xlink:href="#aU"/><use transform="matrix(0.05,0,0,0.05,33.95,0)" xlink:href="#aV"/><use transform="matrix(0.05,0,0,0.05,43.95,0)" xlink:href="#aA"/><use transform="matrix(0.05,0,0,0.05,53.95,0)" xlink:href="#aN"/></g><g id="I"><use transform="matrix(0.05,0,0,0.05,0,0)" xlink:href="#aD"/><use transform="matrix(0.05,0,0,0.05,9,0)" xlink:href="#aF"/><use transform="matrix(0.05,0,0,0.05,19,0)" xlink:href="#aD"/><use transform="matrix(0.05,0,0,0.05,28,0)" xlink:href="#aO"/><use transform="matrix(0.05,0,0,0.05,31.950000000000003,0)" xlink:href="#aJ"/><use transform="matrix(0.05,0,0,0.05,41.95,0)" xlink:href="#aB"/><use transform="matrix(0.05,0,0,0.05,51.95,0)" xlink:href="#aF"/><use transform="matrix(0.05,0,0,0.05,61.95,0)" xlink:href="#aD"/></g><g id="J"><use transform="matrix(0.05,0,0,0.05,0,0)" xlink:href="#aD"/><use transform="matrix(0.05,0,0,0.05,9,0)" xlink:href="#aF"/><use transform="matrix(0.05,0,0,0.05,19,0)" xlink:href="#aD"/><use transform="matrix(0.05,0,0,0.05,28,0)" xlink:href="#aO"/><use transform="matrix(0.05,0,0,0.05,31.950000000000003,0)" xlink:href="#aJ"/><use transform="matrix(0.05,0,0,0.05,41.95,0)" xlink:href="#aB"/><use transform="matrix(0.05,0,0,0.05,51.95,0)" xlink:href="#aY"/><use transform="matrix(0.05,0,0,0.05,61.95,0)" xlink:href="#aO"/><use transform="matrix(0.05,0,0,0.05,65.9,0)" xlink:href="#aR"/></g><path d="M177-190C167-65 218 103 67 71c-23-6-38-20-44-43l32-5c15 47 100 32 89-28v-30C133-14 115 1 83 1 29 1 15-40 15-95c0-56 16-97 71-98 29-1 48 16 59 35 1-10 0-23 2-32h30zM94-22c36 0 50-32 50-73 0-42-14-75-50-75-39 0-46 34-46 75s6 73 46 73" id="bb"/><g id="K"><use transform="matrix(0.05,0,0,0.05,0,0)" xlink:href="#aX"/><use transform="matrix(0.05,0,0,0.05,5,0)" xlink:href="#aF"/><use transform="matrix(0.05,0,0,0.05,15,0)" xlink:href="#aU"/><use transform="matrix(0.05,0,0,0.05,24,0)" xlink:href="#aV"/><use transform="matrix(0.05,0,0,0.05,34,0)" xlink:href="#aA"/><use transform="matrix(0.05,0,0,0.05,44,0)" xlink:href="#aY"/><use transform="matrix(0.05,0,0,0.05,54,0)" xlink:href="#aO"/><use transform="matrix(0.05,0,0,0.05,57.95,0)" xlink:href="#aB"/><use transform="matrix(0.05,0,0,0.05,67.95,0)" xlink:href="#bb"/><use transform="matrix(0.05,0,0,0.05,77.95,0)" xlink:href="#aN"/><use transform="matrix(0.05,0,0,0.05,83.9,0)" xlink:href="#aF"/><use transform="matrix(0.05,0,0,0.05,93.9,0)" xlink:href="#aD"/><use transform="matrix(0.05,0,0,0.05,102.9,0)" xlink:href="#aJ"/></g><path d="M141 0L90-78 38 0H4l68-98-65-92h35l48 74 47-74h35l-64 92 68 98h-35" id="bc"/><g id="L"><use transform="matrix(0.05,0,0,0.05,0,0)" xlink:href="#aX"/><use transform="matrix(0.05,0,0,0.05,5,0)" xlink:href="#aF"/><use transform="matrix(0.05,0,0,0.05,15,0)" xlink:href="#aU"/><use transform="matrix(0.05,0,0,0.05,24,0)" xlink:href="#aV"/><use transform="matrix(0.05,0,0,0.05,34,0)" xlink:href="#aA"/><use transform="matrix(0.05,0,0,0.05,44,0)" xlink:href="#aY"/><use transform="matrix(0.05,0,0,0.05,54,0)" xlink:href="#aF"/><use transform="matrix(0.05,0,0,0.05,64,0)" xlink:href="#bc"/><use transform="matrix(0.05,0,0,0.05,73,0)" xlink:href="#ba"/><use transform="matrix(0.05,0,0,0.05,83,0)" xlink:href="#aO"/><use transform="matrix(0.05,0,0,0.05,86.95,0)" xlink:href="#aN"/><use transform="matrix(0.05,0,0,0.05,92.9,0)" xlink:href="#aA"/><use transform="matrix(0.05,0,0,0.05,102.9,0)" xlink:href="#aU"/><use transform="matrix(0.05,0,0,0.05,111.9,0)" xlink:href="#aO"/><use transform="matrix(0.05,0,0,0.05,115.85000000000001,0)" xlink:href="#aJ"/><use transform="matrix(0.05,0,0,0.05,125.85000000000001,0)" xlink:href="#aB"/></g><g id="M"><use transform="matrix(0.05,0,0,0.05,0,0)" xlink:href="#aG"/><use transform="matrix(0.05,0,0,0.05,10,0)" xlink:href="#aJ"/><use transform="matrix(0.05,0,0,0.05,20,0)" xlink:href="#aW"/><use transform="matrix(0.05,0,0,0.05,23.95,0)" xlink:href="#aD"/><use transform="matrix(0.05,0,0,0.05,32.95,0)" xlink:href="#aO"/><use transform="matrix(0.05,0,0,0.05,36.900000000000006,0)" xlink:href="#aW"/><use transform="matrix(0.05,0,0,0.05,40.85000000000001,0)" xlink:href="#aW"/><use transform="matrix(0.05,0,0,0.05,44.80000000000001,0)" xlink:href="#aJ"/><use transform="matrix(0.05,0,0,0.05,54.80000000000001,0)" xlink:href="#aD"/></g><g id="N"><use transform="matrix(0.05,0,0,0.05,0,0)" xlink:href="#aG"/><use transform="matrix(0.05,0,0,0.05,10,0)" xlink:href="#aJ"/><use transform="matrix(0.05,0,0,0.05,20,0)" xlink:href="#aW"/><use transform="matrix(0.05,0,0,0.05,23.95,0)" xlink:href="#aD"/><use transform="matrix(0.05,0,0,0.05,32.95,0)" xlink:href="#aO"/><use transform="matrix(0.05,0,0,0.05,36.900000000000006,0)" xlink:href="#aW"/><use transform="matrix(0.05,0,0,0.05,40.85000000000001,0)" xlink:href="#aW"/><use transform="matrix(0.05,0,0,0.05,44.80000000000001,0)" xlink:href="#aJ"/><use transform="matrix(0.05,0,0,0.05,54.80000000000001,0)" xlink:href="#aY"/><use transform="matrix(0.05,0,0,0.05,64.80000000000001,0)" xlink:href="#aO"/><use transform="matrix(0.05,0,0,0.05,68.75000000000001,0)" xlink:href="#aR"/></g><g id="O"><use transform="matrix(0.05,0,0,0.05,0,0)" xlink:href="#aX"/><use transform="matrix(0.05,0,0,0.05,5,0)" xlink:href="#aF"/><use transform="matrix(0.05,0,0,0.05,15,0)" xlink:href="#aU"/><use transform="matrix(0.05,0,0,0.05,24,0)" xlink:href="#aV"/><use transform="matrix(0.05,0,0,0.05,34,0)" xlink:href="#aA"/><use transform="matrix(0.05,0,0,0.05,44,0)" xlink:href="#aY"/><use transform="matrix(0.05,0,0,0.05,54,0)" xlink:href="#aU"/><use transform="matrix(0.05,0,0,0.05,63,0)" xlink:href="#aN"/><use transform="matrix(0.05,0,0,0.05,68.95,0)" xlink:href="#aF"/><use transform="matrix(0.05,0,0,0.05,78.95,0)" xlink:href="#aA"/><use transform="matrix(0.05,0,0,0.05,88.95,0)" xlink:href="#aU"/><use transform="matrix(0.05,0,0,0.05,97.95,0)" xlink:href="#aO"/><use transform="matrix(0.05,0,0,0.05,101.9,0)" xlink:href="#aJ"/><use transform="matrix(0.05,0,0,0.05,111.9,0)" xlink:href="#aB"/></g><g id="P"><use transform="matrix(0.05,0,0,0.05,0,0)" xlink:href="#aR"/><use transform="matrix(0.05,0,0,0.05,10,0)" xlink:href="#aA"/><use transform="matrix(0.05,0,0,0.05,20,0)" xlink:href="#aE"/><use transform="matrix(0.05,0,0,0.05,25,0)" xlink:href="#aF"/><use transform="matrix(0.05,0,0,0.05,35,0)" xlink:href="#aE"/><use transform="matrix(0.05,0,0,0.05,40,0)" xlink:href="#aO"/><use transform="matrix(0.05,0,0,0.05,43.95,0)" xlink:href="#aS"/><use transform="matrix(0.05,0,0,0.05,58.900000000000006,0)" xlink:href="#aA"/></g><g id="Q"><use transform="matrix(0.05,0,0,0.05,0,0)" xlink:href="#aE"/><use transform="matrix(0.05,0,0,0.05,5,0)" xlink:href="#aN"/><use transform="matrix(0.05,0,0,0.05,10.95,0)" xlink:href="#aA"/><use transform="matrix(0.05,0,0,0.05,20.95,0)" xlink:href="#aB"/><use transform="matrix(0.05,0,0,0.05,30.950000000000003,0)" xlink:href="#aD"/><use transform="matrix(0.05,0,0,0.05,39.95,0)" xlink:href="#aX"/><use transform="matrix(0.05,0,0,0.05,44.95,0)" xlink:href="#aF"/><use transform="matrix(0.05,0,0,0.05,54.95,0)" xlink:href="#aN"/><use transform="matrix(0.05,0,0,0.05,60.900000000000006,0)" xlink:href="#aF"/><use transform="matrix(0.05,0,0,0.05,70.9,0)" xlink:href="#aB"/><use transform="matrix(0.05,0,0,0.05,80.9,0)" xlink:href="#aU"/><use transform="matrix(0.05,0,0,0.05,89.9,0)" xlink:href="#aO"/><use transform="matrix(0.05,0,0,0.05,93.85000000000001,0)" xlink:href="#aA"/><use transform="matrix(0.05,0,0,0.05,103.85000000000001,0)" xlink:href="#aD"/><use transform="matrix(0.05,0,0,0.05,112.85000000000001,0)" xlink:href="#aY"/><use transform="matrix(0.05,0,0,0.05,122.85000000000001,0)" xlink:href="#aG"/><use transform="matrix(0.05,0,0,0.05,132.85000000000002,0)" xlink:href="#aJ"/><use transform="matrix(0.05,0,0,0.05,142.85000000000002,0)" xlink:href="#aW"/><use transform="matrix(0.05,0,0,0.05,146.8,0)" xlink:href="#aD"/><use transform="matrix(0.05,0,0,0.05,155.8,0)" xlink:href="#aO"/><use transform="matrix(0.05,0,0,0.05,159.75,0)" xlink:href="#aW"/><use transform="matrix(0.05,0,0,0.05,163.7,0)" xlink:href="#aW"/><use transform="matrix(0.05,0,0,0.05,167.64999999999998,0)" xlink:href="#aJ"/><use transform="matrix(0.05,0,0,0.05,177.64999999999998,0)" xlink:href="#aD"/></g><g id="R"><use transform="matrix(0.05,0,0,0.05,0,0)" xlink:href="#aE"/><use transform="matrix(0.05,0,0,0.05,5,0)" xlink:href="#aN"/><use transform="matrix(0.05,0,0,0.05,10.95,0)" xlink:href="#aA"/><use transform="matrix(0.05,0,0,0.05,20.95,0)" xlink:href="#aB"/><use transform="matrix(0.05,0,0,0.05,30.950000000000003,0)" xlink:href="#aD"/><use transform="matrix(0.05,0,0,0.05,39.95,0)" xlink:href="#aX"/><use transform="matrix(0.05,0,0,0.05,44.95,0)" xlink:href="#aF"/><use transform="matrix(0.05,0,0,0.05,54.95,0)" xlink:href="#aN"/><use transform="matrix(0.05,0,0,0.05,60.900000000000006,0)" xlink:href="#aF"/><use transform="matrix(0.05,0,0,0.05,70.9,0)" xlink:href="#aB"/><use transform="matrix(0.05,0,0,0.05,80.9,0)" xlink:href="#aU"/><use transform="matrix(0.05,0,0,0.05,89.9,0)" xlink:href="#aO"/><use transform="matrix(0.05,0,0,0.05,93.85000000000001,0)" xlink:href="#aA"/><use transform="matrix(0.05,0,0,0.05,103.85000000000001,0)" xlink:href="#aY"/><use transform="matrix(0.05,0,0,0.05,113.85000000000001,0)" xlink:href="#aG"/><use transform="matrix(0.05,0,0,0.05,123.85000000000001,0)" xlink:href="#aJ"/><use transform="matrix(0.05,0,0,0.05,133.85000000000002,0)" xlink:href="#aW"/><use transform="matrix(0.05,0,0,0.05,137.8,0)" xlink:href="#aD"/><use transform="matrix(0.05,0,0,0.05,146.8,0)" xlink:href="#aO"/><use transform="matrix(0.05,0,0,0.05,150.75,0)" xlink:href="#aW"/><use transform="matrix(0.05,0,0,0.05,154.7,0)" xlink:href="#aW"/><use transform="matrix(0.05,0,0,0.05,158.64999999999998,0)" xlink:href="#aJ"/><use transform="matrix(0.05,0,0,0.05,168.64999999999998,0)" xlink:href="#aY"/><use transform="matrix(0.05,0,0,0.05,178.64999999999998,0)" xlink:href="#aO"/><use transform="matrix(0.05,0,0,0.05,182.59999999999997,0)" xlink:href="#aR"/></g><g id="S"><use transform="matrix(0.05,0,0,0.05,0,0)" xlink:href="#aU"/><use transform="matrix(0.05,0,0,0.05,9,0)" xlink:href="#az"/><use transform="matrix(0.05,0,0,0.05,19,0)" xlink:href="#aF"/><use transform="matrix(0.05,0,0,0.05,29,0)" xlink:href="#aB"/><use transform="matrix(0.05,0,0,0.05,39,0)" xlink:href="#aE"/><use transform="matrix(0.05,0,0,0.05,44,0)" xlink:href="#aA"/><use transform="matrix(0.05,0,0,0.05,54,0)" xlink:href="#aY"/><use transform="matrix(0.05,0,0,0.05,64,0)" xlink:href="#aJ"/><use transform="matrix(0.05,0,0,0.05,74,0)" xlink:href="#aN"/><use transform="matrix(0.05,0,0,0.05,79.95,0)" xlink:href="#aO"/><use transform="matrix(0.05,0,0,0.05,83.9,0)" xlink:href="#bb"/><use transform="matrix(0.05,0,0,0.05,93.9,0)" xlink:href="#aF"/><use transform="matrix(0.05,0,0,0.05,103.9,0)" xlink:href="#aB"/><use transform="matrix(0.05,0,0,0.05,113.9,0)" xlink:href="#aY"/><use transform="matrix(0.05,0,0,0.05,123.9,0)" xlink:href="#aO"/><use transform="matrix(0.05,0,0,0.05,127.85000000000001,0)" xlink:href="#aR"/></g><g id="T"><use transform="matrix(0.05,0,0,0.05,0,0)" xlink:href="#aG"/><use transform="matrix(0.05,0,0,0.05,10,0)" xlink:href="#aJ"/><use transform="matrix(0.05,0,0,0.05,20,0)" xlink:href="#aW"/><use transform="matrix(0.05,0,0,0.05,23.95,0)" xlink:href="#aD"/><use transform="matrix(0.05,0,0,0.05,32.95,0)" xlink:href="#aO"/><use transform="matrix(0.05,0,0,0.05,36.900000000000006,0)" xlink:href="#aW"/><use transform="matrix(0.05,0,0,0.05,40.85000000000001,0)" xlink:href="#aW"/><use transform="matrix(0.05,0,0,0.05,44.80000000000001,0)" xlink:href="#aJ"/><use transform="matrix(0.05,0,0,0.05,54.80000000000001,0)" xlink:href="#aY"/><use transform="matrix(0.05,0,0,0.05,64.80000000000001,0)" xlink:href="#aR"/><use transform="matrix(0.05,0,0,0.05,74.80000000000001,0)" xlink:href="#aF"/><use transform="matrix(0.05,0,0,0.05,84.80000000000001,0)" xlink:href="#aD"/><use transform="matrix(0.05,0,0,0.05,93.80000000000001,0)" xlink:href="#aE"/><use transform="matrix(0.05,0,0,0.05,98.80000000000001,0)" xlink:href="#aO"/><use transform="matrix(0.05,0,0,0.05,102.75,0)" xlink:href="#aB"/><use transform="matrix(0.05,0,0,0.05,112.75,0)" xlink:href="#aJ"/><use transform="matrix(0.05,0,0,0.05,122.75,0)" xlink:href="#aY"/><use transform="matrix(0.05,0,0,0.05,132.75,0)" xlink:href="#aO"/><use transform="matrix(0.05,0,0,0.05,136.7,0)" xlink:href="#aR"/></g><g id="U"><use transform="matrix(0.05,0,0,0.05,0,0)" xlink:href="#aS"/><use transform="matrix(0.05,0,0,0.05,14.950000000000001,0)" xlink:href="#aJ"/><use transform="matrix(0.05,0,0,0.05,24.950000000000003,0)" xlink:href="#aB"/><use transform="matrix(0.05,0,0,0.05,34.95,0)" xlink:href="#aE"/><use transform="matrix(0.05,0,0,0.05,39.95,0)" xlink:href="#aJ"/></g><g id="V"><use transform="matrix(0.05,0,0,0.05,0,0)" xlink:href="#aX"/><use transform="matrix(0.05,0,0,0.05,5,0)" xlink:href="#aF"/><use transform="matrix(0.05,0,0,0.05,15,0)" xlink:href="#aU"/><use transform="matrix(0.05,0,0,0.05,24,0)" xlink:href="#aV"/><use transform="matrix(0.05,0,0,0.05,34,0)" xlink:href="#aA"/><use transform="matrix(0.05,0,0,0.05,44,0)" xlink:href="#aY"/><use transform="matrix(0.05,0,0,0.05,54,0)" xlink:href="#aE"/><use transform="matrix(0.05,0,0,0.05,59,0)" xlink:href="#aN"/><use transform="matrix(0.05,0,0,0.05,64.95,0)" xlink:href="#aA"/><use transform="matrix(0.05,0,0,0.05,74.95,0)" xlink:href="#aB"/><use transform="matrix(0.05,0,0,0.05,84.95,0)" xlink:href="#aD"/><use transform="matrix(0.05,0,0,0.05,93.95,0)" xlink:href="#aX"/><use transform="matrix(0.05,0,0,0.05,98.95,0)" xlink:href="#aF"/><use transform="matrix(0.05,0,0,0.05,108.95,0)" xlink:href="#aN"/><use transform="matrix(0.05,0,0,0.05,114.9,0)" xlink:href="#aF"/><use transform="matrix(0.05,0,0,0.05,124.9,0)" xlink:href="#aB"/><use transform="matrix(0.05,0,0,0.05,134.9,0)" xlink:href="#aU"/><use transform="matrix(0.05,0,0,0.05,143.9,0)" xlink:href="#aO"/><use transform="matrix(0.05,0,0,0.05,147.85,0)" xlink:href="#aA"/></g><g id="W"><use transform="matrix(0.05,0,0,0.05,0,0)" xlink:href="#aU"/><use transform="matrix(0.05,0,0,0.05,9,0)" xlink:href="#az"/><use transform="matrix(0.05,0,0,0.05,19,0)" xlink:href="#aF"/><use transform="matrix(0.05,0,0,0.05,29,0)" xlink:href="#aB"/><use transform="matrix(0.05,0,0,0.05,39,0)" xlink:href="#aE"/><use transform="matrix(0.05,0,0,0.05,44,0)" xlink:href="#aA"/><use transform="matrix(0.05,0,0,0.05,54,0)" xlink:href="#aD"/><use transform="matrix(0.05,0,0,0.05,63,0)" xlink:href="#aY"/><use transform="matrix(0.05,0,0,0.05,73,0)" xlink:href="#aG"/><use transform="matrix(0.05,0,0,0.05,83,0)" xlink:href="#aA"/><use transform="matrix(0.05,0,0,0.05,93,0)" xlink:href="#aB"/><use transform="matrix(0.05,0,0,0.05,103,0)" xlink:href="#aU"/><use transform="matrix(0.05,0,0,0.05,112,0)" xlink:href="#aJ"/></g><g id="X"><use transform="matrix(0.05,0,0,0.05,0,0)" xlink:href="#aB"/><use transform="matrix(0.05,0,0,0.05,10,0)" xlink:href="#az"/><use transform="matrix(0.05,0,0,0.05,20,0)" xlink:href="#aS"/><use transform="matrix(0.05,0,0,0.05,34.95,0)" xlink:href="#aF"/><use transform="matrix(0.05,0,0,0.05,44.95,0)" xlink:href="#aN"/><use transform="matrix(0.05,0,0,0.05,50.900000000000006,0)" xlink:href="#aJ"/><use transform="matrix(0.05,0,0,0.05,60.900000000000006,0)" xlink:href="#aY"/><use transform="matrix(0.05,0,0,0.05,70.9,0)" xlink:href="#aU"/><use transform="matrix(0.05,0,0,0.05,79.9,0)" xlink:href="#az"/><use transform="matrix(0.05,0,0,0.05,89.9,0)" xlink:href="#aF"/><use transform="matrix(0.05,0,0,0.05,99.9,0)" xlink:href="#aB"/><use transform="matrix(0.05,0,0,0.05,109.9,0)" xlink:href="#aE"/><use transform="matrix(0.05,0,0,0.05,114.9,0)" xlink:href="#aA"/></g><g id="Y"><use transform="matrix(0.05,0,0,0.05,0,0)" xlink:href="#aE"/><use transform="matrix(0.05,0,0,0.05,5,0)" xlink:href="#aN"/><use transform="matrix(0.05,0,0,0.05,10.95,0)" xlink:href="#aA"/><use transform="matrix(0.05,0,0,0.05,20.95,0)" xlink:href="#aB"/><use transform="matrix(0.05,0,0,0.05,30.950000000000003,0)" xlink:href="#aD"/><use transform="matrix(0.05,0,0,0.05,39.95,0)" xlink:href="#aA"/><use transform="matrix(0.05,0,0,0.05,49.95,0)" xlink:href="#aU"/><use transform="matrix(0.05,0,0,0.05,58.95,0)" xlink:href="#aU"/><use transform="matrix(0.05,0,0,0.05,67.95,0)" xlink:href="#aO"/><use transform="matrix(0.05,0,0,0.05,71.9,0)" xlink:href="#aJ"/><use transform="matrix(0.05,0,0,0.05,81.9,0)" xlink:href="#aB"/><use transform="matrix(0.05,0,0,0.05,91.9,0)" xlink:href="#aF"/><use transform="matrix(0.05,0,0,0.05,101.9,0)" xlink:href="#aD"/></g><g id="Z"><use transform="matrix(0.05,0,0,0.05,0,0)" xlink:href="#aE"/><use transform="matrix(0.05,0,0,0.05,5,0)" xlink:href="#aN"/><use transform="matrix(0.05,0,0,0.05,10.95,0)" xlink:href="#aA"/><use transform="matrix(0.05,0,0,0.05,20.95,0)" xlink:href="#aB"/><use transform="matrix(0.05,0,0,0.05,30.950000000000003,0)" xlink:href="#aD"/><use transform="matrix(0.05,0,0,0.05,39.95,0)" xlink:href="#aA"/><use transform="matrix(0.05,0,0,0.05,49.95,0)" xlink:href="#aU"/><use transform="matrix(0.05,0,0,0.05,58.95,0)" xlink:href="#aU"/><use transform="matrix(0.05,0,0,0.05,67.95,0)" xlink:href="#aO"/><use transform="matrix(0.05,0,0,0.05,71.9,0)" xlink:href="#aJ"/><use transform="matrix(0.05,0,0,0.05,81.9,0)" xlink:href="#aB"/><use transform="matrix(0.05,0,0,0.05,91.9,0)" xlink:href="#aY"/><use transform="matrix(0.05,0,0,0.05,101.9,0)" xlink:href="#aO"/><use transform="matrix(0.05,0,0,0.05,105.85000000000001,0)" xlink:href="#aR"/></g><g id="aa"><use transform="matrix(0.05,0,0,0.05,0,0)" xlink:href="#aU"/><use transform="matrix(0.05,0,0,0.05,9,0)" xlink:href="#az"/><use transform="matrix(0.05,0,0,0.05,19,0)" xlink:href="#aF"/><use transform="matrix(0.05,0,0,0.05,29,0)" xlink:href="#aB"/><use transform="matrix(0.05,0,0,0.05,39,0)" xlink:href="#aE"/><use transform="matrix(0.05,0,0,0.05,44,0)" xlink:href="#aA"/><use transform="matrix(0.05,0,0,0.05,54,0)" xlink:href="#aY"/><use transform="matrix(0.05,0,0,0.05,64,0)" xlink:href="#aJ"/><use transform="matrix(0.05,0,0,0.05,74,0)" xlink:href="#aN"/><use transform="matrix(0.05,0,0,0.05,79.95,0)" xlink:href="#aO"/><use transform="matrix(0.05,0,0,0.05,83.9,0)" xlink:href="#bb"/><use transform="matrix(0.05,0,0,0.05,93.9,0)" xlink:href="#aF"/><use transform="matrix(0.05,0,0,0.05,103.9,0)" xlink:href="#aB"/></g><g id="ab"><use transform="matrix(0.05,0,0,0.05,0,0)" xlink:href="#aU"/><use transform="matrix(0.05,0,0,0.05,9,0)" xlink:href="#az"/><use transform="matrix(0.05,0,0,0.05,19,0)" xlink:href="#aF"/><use transform="matrix(0.05,0,0,0.05,29,0)" xlink:href="#aB"/><use transform="matrix(0.05,0,0,0.05,39,0)" xlink:href="#aE"/><use transform="matrix(0.05,0,0,0.05,44,0)" xlink:href="#aA"/><use transform="matrix(0.05,0,0,0.05,54,0)" xlink:href="#aY"/><use transform="matrix(0.05,0,0,0.05,64,0)" xlink:href="#aR"/><use transform="matrix(0.05,0,0,0.05,74,0)" xlink:href="#aF"/><use transform="matrix(0.05,0,0,0.05,84,0)" xlink:href="#aD"/><use transform="matrix(0.05,0,0,0.05,93,0)" xlink:href="#aE"/><use transform="matrix(0.05,0,0,0.05,98,0)" xlink:href="#aO"/><use transform="matrix(0.05,0,0,0.05,101.95,0)" xlink:href="#aB"/><use transform="matrix(0.05,0,0,0.05,111.95,0)" xlink:href="#aJ"/></g><g id="ac"><use transform="matrix(0.05,0,0,0.05,0,0)" xlink:href="#aE"/><use transform="matrix(0.05,0,0,0.05,5,0)" xlink:href="#aO"/><use transform="matrix(0.05,0,0,0.05,8.95,0)" xlink:href="#ba"/><use transform="matrix(0.05,0,0,0.05,18.95,0)" xlink:href="#aJ"/><use transform="matrix(0.05,0,0,0.05,28.950000000000003,0)" xlink:href="#aY"/><use transform="matrix(0.05,0,0,0.05,38.95,0)" xlink:href="#aE"/><use transform="matrix(0.05,0,0,0.05,43.95,0)" xlink:href="#aN"/><use transform="matrix(0.05,0,0,0.05,49.900000000000006,0)" xlink:href="#aA"/><use transform="matrix(0.05,0,0,0.05,59.900000000000006,0)" xlink:href="#aB"/><use transform="matrix(0.05,0,0,0.05,69.9,0)" xlink:href="#aD"/><use transform="matrix(0.05,0,0,0.05,78.9,0)" xlink:href="#aA"/><use transform="matrix(0.05,0,0,0.05,88.9,0)" xlink:href="#aU"/><use transform="matrix(0.05,0,0,0.05,97.9,0)" xlink:href="#aU"/><use transform="matrix(0.05,0,0,0.05,106.9,0)" xlink:href="#aO"/><use transform="matrix(0.05,0,0,0.05,110.85000000000001,0)" xlink:href="#aJ"/><use transform="matrix(0.05,0,0,0.05,120.85000000000001,0)" xlink:href="#aB"/></g><g id="ad"><use transform="matrix(0.05,0,0,0.05,0,0)" xlink:href="#aX"/><use transform="matrix(0.05,0,0,0.05,5,0)" xlink:href="#aF"/><use transform="matrix(0.05,0,0,0.05,15,0)" xlink:href="#aU"/><use transform="matrix(0.05,0,0,0.05,24,0)" xlink:href="#aV"/><use transform="matrix(0.05,0,0,0.05,34,0)" xlink:href="#aA"/><use transform="matrix(0.05,0,0,0.05,44,0)" xlink:href="#aY"/><use transform="matrix(0.05,0,0,0.05,54,0)" xlink:href="#aE"/><use transform="matrix(0.05,0,0,0.05,59,0)" xlink:href="#aN"/><use transform="matrix(0.05,0,0,0.05,64.95,0)" xlink:href="#aA"/><use transform="matrix(0.05,0,0,0.05,74.95,0)" xlink:href="#aB"/><use transform="matrix(0.05,0,0,0.05,84.95,0)" xlink:href="#aD"/><use transform="matrix(0.05,0,0,0.05,93.95,0)" xlink:href="#aA"/><use transform="matrix(0.05,0,0,0.05,103.95,0)" xlink:href="#aU"/><use transform="matrix(0.05,0,0,0.05,112.95,0)" xlink:href="#aU"/><use transform="matrix(0.05,0,0,0.05,121.95,0)" xlink:href="#aO"/><use transform="matrix(0.05,0,0,0.05,125.9,0)" xlink:href="#aJ"/><use transform="matrix(0.05,0,0,0.05,135.9,0)" xlink:href="#aB"/></g><g id="ae"><use transform="matrix(0.05,0,0,0.05,0,0)" xlink:href="#aF"/><use transform="matrix(0.05,0,0,0.05,10,0)" xlink:href="#aD"/><use transform="matrix(0.05,0,0,0.05,19,0)" xlink:href="#aE"/><use transform="matrix(0.05,0,0,0.05,24,0)" xlink:href="#aA"/><use transform="matrix(0.05,0,0,0.05,34,0)" xlink:href="#aR"/><use transform="matrix(0.05,0,0,0.05,44,0)" xlink:href="#aJ"/><use transform="matrix(0.05,0,0,0.05,54,0)" xlink:href="#aY"/><use transform="matrix(0.05,0,0,0.05,64,0)" xlink:href="#aE"/><use transform="matrix(0.05,0,0,0.05,69,0)" xlink:href="#aN"/><use transform="matrix(0.05,0,0,0.05,74.95,0)" xlink:href="#aA"/><use transform="matrix(0.05,0,0,0.05,84.95,0)" xlink:href="#aB"/><use transform="matrix(0.05,0,0,0.05,94.95,0)" xlink:href="#aD"/><use transform="matrix(0.05,0,0,0.05,103.95,0)" xlink:href="#aA"/><use transform="matrix(0.05,0,0,0.05,113.95,0)" xlink:href="#aU"/><use transform="matrix(0.05,0,0,0.05,122.95,0)" xlink:href="#aU"/><use transform="matrix(0.05,0,0,0.05,131.95,0)" xlink:href="#aO"/><use transform="matrix(0.05,0,0,0.05,135.89999999999998,0)" xlink:href="#aJ"/><use transform="matrix(0.05,0,0,0.05,145.89999999999998,0)" xlink:href="#aB"/></g></defs></g></svg>